<svg width="24" height="24" viewBox="0 0 24 24" fill="none" xmlns="http://www.w3.org/2000/svg">
  <path d="M21.949,10.112c-0.494-0.229-10.507-4.37-10.507-4.37l-0.07-3.709C11.372,1.462,10.909,1,10.338,1
    c-0.571,0-1.034,0.462-1.034,1.033l0.015,3.709l-8.294,3.485C0.537,9.452,0,10.164,0,10.976v1.03
    c0,0.571,0.462,1.034,1.033,1.034h19.933c0.571,0,1.034-0.462,1.034-1.034v-1.03C22,10.539,21.949,10.112,21.949,10.112z" fill="#6A3EB7"/>
  <path d="M18.466,14.059H3.534c-0.571,0-1.033,0.462-1.033,1.034v1.03c0,0.812,0.537,1.523,1.026,1.748l6.914,3.317
    l-0.006,1.779c0,0.571,0.462,1.033,1.033,1.033h0.001c0.571,0,1.033-0.462,1.033-1.033v-1.779l6.915-3.317
    c0.488-0.225,1.025-0.936,1.025-1.748v-1.03C19.5,14.521,19.037,14.059,18.466,14.059z" fill="#6A3EB7"/>
</svg>