<svg width="170" height="50" viewBox="0 0 170 50" fill="none" xmlns="http://www.w3.org/2000/svg">
  <g>
    <!-- Main logo text as paths instead of text -->
    <path d="M15.5 25V11.5H17.5V25H15.5Z" fill="#4B2A84"/>
    <path d="M21.5 25V15.5H23.5V17C24.3 15.8 25.5 15.2 27 15.2C28.2 15.2 29.2 15.6 29.9 16.4C30.6 17.2 31 18.3 31 19.7V25H29V20C29 19 28.8 18.2 28.3 17.7C27.8 17.2 27.2 16.9 26.3 16.9C25.3 16.9 24.5 17.3 23.9 18C23.3 18.7 23 19.7 23 21V25H21.5Z" fill="#4B2A84"/>
    <!-- Letter g with transparent inner part -->
    <path fill-rule="evenodd" clip-rule="evenodd" d="M42 25C41.7 25.7 41.3 26.2 40.8 26.5C40.3 26.8 39.7 27 39 27C37.8 27 36.8 26.6 36.1 25.8C35.4 25 35 23.9 35 22.5C35 21.1 35.4 20 36.1 19.2C36.8 18.4 37.8 18 39 18C39.7 18 40.3 18.2 40.8 18.5C41.3 18.8 41.7 19.3 42 20V18.5H44V24.5C44 26.2 43.6 27.5 42.8 28.3C42 29.1 40.8 29.5 39.2 29.5C38.3 29.5 37.5 29.3 36.8 29C36.1 28.7 35.5 28.2 35 27.5L36.5 26.2C37.2 27.1 38.1 27.5 39.2 27.5C40 27.5 40.6 27.3 41.1 26.8C41.6 26.3 41.8 25.6 41.8 24.7V24C41.5 24.7 41.1 25.2 40.6 25.5C40.1 25.8 39.5 26 38.8 26C37.9 26 37.1 25.7 36.5 25.1C35.9 24.5 35.6 23.6 35.6 22.5C35.6 21.4 35.9 20.5 36.5 19.9C37.1 19.3 37.9 19 38.8 19C39.5 19 40.1 19.2 40.6 19.5C41.1 19.8 41.5 20.3 41.8 21V19H42V25Z" fill="#4B2A84"/>
    <!-- Letter o with transparent inner part -->
    <path fill-rule="evenodd" clip-rule="evenodd" d="M53 22.5C53 23.9 52.6 25 51.9 25.8C51.2 26.6 50.2 27 49 27C47.8 27 46.8 26.6 46.1 25.8C45.4 25 45 23.9 45 22.5C45 21.1 45.4 20 46.1 19.2C46.8 18.4 47.8 18 49 18C50.2 18 51.2 18.4 51.9 19.2C52.6 20 53 21.1 53 22.5ZM51 22.5C51 21.5 50.8 20.7 50.3 20.2C49.8 19.7 49.2 19.4 48.5 19.4C47.8 19.4 47.2 19.7 46.7 20.2C46.2 20.7 46 21.5 46 22.5C46 23.5 46.2 24.3 46.7 24.8C47.2 25.3 47.8 25.6 48.5 25.6C49.2 25.6 49.8 25.3 50.3 24.8C50.8 24.3 51 23.5 51 22.5Z" fill="#4B2A84"/>
    <path d="M55 25V15.5H57V17C57.7 15.8 58.9 15.2 60.5 15.2C61.7 15.2 62.7 15.6 63.4 16.4C64.1 17.2 64.5 18.3 64.5 19.7V25H62.5V20C62.5 19 62.3 18.2 61.8 17.7C61.3 17.2 60.7 16.9 59.8 16.9C58.8 16.9 58 17.3 57.4 18C56.8 18.7 56.5 19.7 56.5 21V25H55Z" fill="#4B2A84"/>
    <path d="M67 25V15.5H69V25H67ZM67 14V11.5H69V14H67Z" fill="#4B2A84"/>
    <!-- Letter a with transparent inner part -->
    <path fill-rule="evenodd" clip-rule="evenodd" d="M80 25C79.7 25.7 79.3 26.2 78.8 26.5C78.3 26.8 77.7 27 77 27C75.8 27 74.8 26.6 74.1 25.8C73.4 25 73 23.9 73 22.5C73 21.1 73.4 20 74.1 19.2C74.8 18.4 75.8 18 77 18C77.7 18 78.3 18.2 78.8 18.5C79.3 18.8 79.7 19.3 80 20V18.5H82V24.5C82 26.2 81.6 27.5 80.8 28.3C80 29.1 78.8 29.5 77.2 29.5C76.3 29.5 75.5 29.3 74.8 29C74.1 28.7 73.5 28.2 73 27.5L74.5 26.2C75.2 27.1 76.1 27.5 77.2 27.5C78 27.5 78.6 27.3 79.1 26.8C79.6 26.3 79.8 25.6 79.8 24.7V24C79.5 24.7 79.1 25.2 78.6 25.5C78.1 25.8 77.5 26 76.8 26C75.9 26 75.1 25.7 74.5 25.1C73.9 24.5 73.6 23.6 73.6 22.5C73.6 21.4 73.9 20.5 74.5 19.9C75.1 19.3 75.9 19 76.8 19C77.5 19 78.1 19.2 78.6 19.5C79.1 19.8 79.5 20.3 79.8 21V19H80V25ZM79.8 22.5C79.8 21.7 79.6 21.1 79.1 20.6C78.6 20.1 78 19.9 77.3 19.9C76.6 19.9 76 20.1 75.5 20.6C75 21.1 74.8 21.7 74.8 22.5C74.8 23.3 75 23.9 75.5 24.4C76 24.9 76.6 25.1 77.3 25.1C78 25.1 78.6 24.9 79.1 24.4C79.6 23.9 79.8 23.3 79.8 22.5Z" fill="#4B2A84"/>
    <!-- Tagline -->
    <path d="M2.5 38H3.3V35.5H5.5V34.8H3.3V33H5.7V32.3H2.5V38Z" fill="#6A3EB7"/>
    <path d="M7 38H7.8V35.8H9.1L10.3 38H11.2L9.9 35.7C10.6 35.5 11 35 11 34.2C11 33.2 10.4 32.7 9.2 32.7H7V38ZM7.8 35.1V33.4H9.1C9.8 33.4 10.2 33.7 10.2 34.2C10.2 34.8 9.8 35.1 9.1 35.1H7.8Z" fill="#6A3EB7"/>
    <path d="M13.1 38H16.5V37.3H13.9V35.5H16.2V34.8H13.9V33H16.4V32.3H13.1V38Z" fill="#6A3EB7"/>
    <path d="M18.2 38H19V33H20.7V32.3H16.5V33H18.2V38Z" fill="#6A3EB7"/>
    <path d="M26.3 38H27.1V32.3H26.3V34.7H23.4V32.3H22.6V38H23.4V35.4H26.3V38Z" fill="#6A3EB7"/>
    <path d="M29.1 38H32.5V37.3H29.9V35.5H32.2V34.8H29.9V33H32.4V32.3H29.1V38Z" fill="#6A3EB7"/>
    <path d="M36.3 38.1C37.7 38.1 38.7 37.1 38.7 35.7V32.3H37.9V35.6C37.9 36.6 37.3 37.3 36.3 37.3C35.3 37.3 34.7 36.6 34.7 35.6V32.3H33.9V35.7C33.9 37.1 34.9 38.1 36.3 38.1Z" fill="#6A3EB7"/>
    <path d="M40.3 38H41.1V35.8H42.4L43.6 38H44.5L43.2 35.7C43.9 35.5 44.3 35 44.3 34.2C44.3 33.2 43.7 32.7 42.5 32.7H40.3V38ZM41.1 35.1V33.4H42.4C43.1 33.4 43.5 33.7 43.5 34.2C43.5 34.8 43.1 35.1 42.4 35.1H41.1Z" fill="#6A3EB7"/>
    <path d="M49.9 38H50.8L48.5 32.3H47.7L45.4 38H46.3L46.8 36.7H49.4L49.9 38ZM47.1 36L48.1 33.5L49.1 36H47.1Z" fill="#6A3EB7"/>
    <path d="M52.1 38H52.9V35.5H55.1V34.8H52.9V33H55.3V32.3H52.1V38Z" fill="#6A3EB7"/>
    <path d="M59.9 38H60.7V32.3H59.9V34.7H57V32.3H56.2V38H57V35.4H59.9V38Z" fill="#6A3EB7"/>
    <!-- Arrow -->
    <path d="M142 35 L147 32 L152 35" stroke="#6A3EB7" stroke-width="1" fill="none"/>
  </g>
</svg>