<?xml version="1.0" encoding="UTF-8"?>
<svg version="1.1" xmlns="http://www.w3.org/2000/svg" width="1011" height="437">

<path d="M0 0 C1.32 1.32 2.64 2.64 4 4 C4.33 0.04 4.66 -3.92 5 -8 C15.56 -8 26.12 -8 37 -8 C36.01 -4.7 35.02 -1.4 34 2 C33.56940118 5.15300799 33.56940118 5.15300799 33.62145996 8.0546875 C33.60915596 9.68966942 33.60915596 9.68966942 33.59660339 11.35768127 C33.60582573 13.09875404 33.60582573 13.09875404 33.61523438 14.875 C33.6098616 16.12526474 33.60448883 17.37552948 33.59895325 18.66368103 C33.58920829 21.36527175 33.58471616 24.06624838 33.58930969 26.76779175 C33.59618333 31.05827014 33.58013952 35.34848619 33.56091309 39.63891602 C33.5231983 48.75926332 33.51029904 57.87958674 33.5 67 C33.48888261 76.82333339 33.47315484 86.64654311 33.42928743 96.46979332 C33.41410069 100.02720374 33.40494808 103.58440272 33.41069031 107.1418457 C33.44944524 132.63494037 33.42314257 157.20540502 15.12890625 177.02734375 C-2.44513396 193.72450877 -27.66624306 193.58358375 -50.29589844 193.140625 C-58.33934966 192.83525801 -66.12891309 191.62306524 -74 190 C-75.10988281 189.7831958 -75.10988281 189.7831958 -76.2421875 189.56201172 C-86.33920454 187.56253663 -96.96722889 185.07459051 -106 180 C-107.32228487 176.77478621 -106.85344877 174.39991399 -106.0390625 171.078125 C-105.81476563 170.13453125 -105.59046875 169.1909375 -105.359375 168.21875 C-105.11703125 167.2390625 -104.8746875 166.259375 -104.625 165.25 C-103.06389116 158.83401421 -101.66996629 152.57501801 -101 146 C-100.34 146.680625 -99.68 147.36125 -99 148.0625 C-81.42291751 165.49187591 -61.78221064 172.00509646 -37.3125 172.3125 C-35.86895142 172.33932861 -35.86895142 172.33932861 -34.39624023 172.36669922 C-23.96837903 172.35417326 -14.18728732 169.6884057 -6 163 C3.12434263 152.22367112 3.47042522 138.18364917 3.6875 124.75 C3.72076871 123.31116879 3.7552667 121.87236547 3.79101562 120.43359375 C3.87480448 116.95593457 3.94211531 113.47819838 4 110 C3.48630859 110.46833252 2.97261719 110.93666504 2.44335938 111.41918945 C-13.16234983 125.40444537 -31.91150886 128.31010952 -52.20947266 127.22314453 C-67.76888435 125.97893611 -84.26522575 120.91946781 -95 109 C-109.72806839 91.51815411 -111.46625501 67.92111833 -110 46 C-109.4307516 40.89391689 -108.32340667 35.96123619 -107 31 C-106.79503906 30.10539062 -106.59007812 29.21078125 -106.37890625 28.2890625 C-102.96885804 14.86067391 -94.71649278 4.68840035 -83.22265625 -2.8125 C-58.70566161 -16.26489761 -23.29234412 -15.52822941 0 0 Z " fill="#9470E0" transform="translate(369,97)"/>
<path d="M0 0 C12.87498846 11.76233514 18.57022729 28.80205568 19.34375 45.85546875 C19.88052158 67.72458195 16.79549156 88.64109148 1.25 105.1875 C-15.04235294 120.70843472 -38.42489967 122.73112391 -59.84375 122.2890625 C-80.22681542 121.53857216 -98.69662109 116.47764917 -113.0703125 101.234375 C-127.19812747 84.8758524 -128.10247952 62.56870198 -127 42 C-125.45464867 24.18279331 -118.40904118 8.93574788 -104.90234375 -2.82421875 C-77.30529021 -23.51272322 -26.07167485 -22.44040871 0 0 Z " fill="#9470E0" transform="translate(559,102)"/>
<path d="M0 0 C2.45491969 0.01077256 4.90911529 0.0000155 7.36401367 -0.01269531 C15.3731569 -0.02023788 22.98184741 0.12101783 30.76049805 2.26074219 C31.91678711 2.5559375 33.07307617 2.85113281 34.2644043 3.15527344 C47.60562837 7.15934452 59.30691006 13.27500612 66.15869141 25.97045898 C66.5016626 26.64375244 66.84463379 27.3170459 67.19799805 28.01074219 C67.67474976 28.93850464 67.67474976 28.93850464 68.16113281 29.88500977 C73.45265948 41.08984239 74.18910564 52.67653346 74.14062309 64.83599281 C74.13136951 67.37245477 74.14189273 69.90819983 74.15724182 72.44462585 C74.19697331 79.64512306 74.19853889 86.84555377 74.19628906 94.04614258 C74.19623782 98.4768391 74.21545978 102.90714047 74.24562263 107.3377285 C74.25637508 109.82391518 74.24436919 112.30932562 74.23179626 114.79548645 C74.24070453 116.32989247 74.25078025 117.86429231 74.26220703 119.39868164 C74.25246353 120.07885345 74.24272003 120.75902527 74.23268127 121.45980835 C74.32075654 127.42368953 75.76827735 129.27630079 78.76049805 135.26074219 C67.54049805 135.26074219 56.32049805 135.26074219 44.76049805 135.26074219 C44.76049805 130.97074219 44.76049805 126.68074219 44.76049805 122.26074219 C43.33737305 123.14761719 41.91424805 124.03449219 40.44799805 124.94824219 C18.90752876 138.3720129 -9.84057715 141.97882948 -34.58789062 137.07324219 C-46.17553211 134.38045996 -56.83123901 129.89424044 -63.42700195 119.57324219 C-69.65209564 108.47917759 -71.01848207 96.98854619 -68.17700195 84.51074219 C-64.79739418 73.904692 -57.80380401 66.69665564 -48.23950195 61.26074219 C-21.5910477 49.22299216 11.29047388 52.00224388 38.14331055 62.11230469 C40.76049805 63.26074219 40.76049805 63.26074219 43.76049805 65.26074219 C43.47762933 52.40435918 43.07057068 40.43199331 34.58862305 29.97949219 C25.92198279 21.83136887 14.0963855 20.8881998 2.82299805 20.94824219 C1.71706299 20.95388184 0.61112793 20.95952148 -0.52832031 20.96533203 C-21.18780816 21.26859608 -38.41659556 27.05614436 -56.23950195 37.26074219 C-57.22950195 37.75574219 -57.22950195 37.75574219 -58.23950195 38.26074219 C-58.89950195 29.35074219 -59.55950195 20.44074219 -60.23950195 11.26074219 C-53.34146578 8.50152772 -47.07183918 6.26517243 -39.92700195 4.63574219 C-38.65566406 4.33023438 -38.65566406 4.33023438 -37.35864258 4.01855469 C-24.84226504 1.09337881 -12.81552776 -0.06687481 0 0 Z " fill="#34205E" transform="translate(885.239501953125,85.7392578125)"/>
<path d="M0 0 C13.86 0 27.72 0 42 0 C42 3.3 42 6.6 42 10 C42.88390274 13.41176892 42.88390274 13.41176892 44.3515625 16.4921875 C44.86614014 17.67345215 45.38071777 18.8547168 45.91088867 20.07177734 C46.18951752 20.68962097 46.46814636 21.3074646 46.75521851 21.94403076 C48.28085913 25.33104824 49.7434079 28.74542345 51.21484375 32.15625 C51.52531143 32.87179047 51.83577911 33.58733093 52.15565491 34.32455444 C55.72303452 42.5875265 58.95773262 50.97568579 62.1875 59.375 C63.34947138 62.38832551 64.51259109 65.40120727 65.67578125 68.4140625 C66.09589981 69.50329514 66.09589981 69.50329514 66.52450562 70.61453247 C70.58116646 81.11672573 74.78565071 91.5602435 79 102 C82.18666809 95.86281345 84.84624928 89.62695107 87.37890625 83.1953125 C87.78786133 82.16606155 88.19681641 81.13681061 88.61816406 80.07637024 C89.48780358 77.88755291 90.35602573 75.69817199 91.22293091 73.50827026 C104.01998709 41.18750389 104.01998709 41.18750389 110.84008789 25.49853516 C112.56925121 21.50190804 114.26535152 17.49455594 115.77734375 13.41015625 C116.01573975 12.77343994 116.25413574 12.13672363 116.49975586 11.48071289 C117.25695429 7.72576256 117 3.83053539 117 0 C130.2 0 143.4 0 157 0 C155.02 2.64 153.04 5.28 151 8 C149.35846815 10.83976949 147.80385794 13.6484959 146.3125 16.5625 C145.88590088 17.38637207 145.45930176 18.21024414 145.01977539 19.05908203 C139.77924599 29.26135881 134.85599868 39.61042142 130 50 C129.68208496 50.67836914 129.36416992 51.35673828 129.03662109 52.05566406 C115.12793496 81.64726959 115.12793496 81.64726959 103 112 C102.37931641 113.65902344 102.37931641 113.65902344 101.74609375 115.3515625 C100.63313706 120.79397897 101 126.44495097 101 132 C86.81 132 72.62 132 58 132 C58 128.37 58 124.74 58 121 C57.23107146 117.46480661 57.23107146 117.46480661 55.8125 114.1875 C55.55114258 113.53394531 55.28978516 112.88039063 55.02050781 112.20703125 C54.04004426 109.79292165 53.02243984 107.39663448 52 105 C51.58089355 104.00693848 51.16178711 103.01387695 50.72998047 101.99072266 C43.94219999 85.95706487 36.82502452 70.06780527 29.6875 54.1875 C29.31363159 53.35508789 28.93976318 52.52267578 28.55456543 51.66503906 C24.65040917 42.9801694 20.71103659 34.31207545 16.68359375 25.68359375 C16.20704597 24.65518623 16.20704597 24.65518623 15.72087097 23.60600281 C11.54134286 14.70724443 6.41428556 7.48333316 0 0 Z " fill="#331F5E" transform="translate(581,89)"/>
<path d="M0 0 C13.86 0 27.72 0 42 0 C41.67 2.31 41.34 4.62 41 7 C41.77626028 10.33081186 41.77626028 10.33081186 43.25 13.75 C43.65871338 14.77988037 43.65871338 14.77988037 44.07568359 15.83056641 C45.03319549 18.2277195 46.0156787 20.61373849 47 23 C47.71698776 24.7626786 48.43308867 26.52571813 49.1484375 28.2890625 C50.41636585 31.40780936 51.68659012 34.52557113 52.96118164 37.64160156 C57.78125979 49.42845492 62.55234616 61.23497613 67.30023193 73.05108643 C68.22479714 75.34966559 69.1512696 77.64747851 70.07965088 79.94451904 C71.3952755 83.20063562 72.70426819 86.4593442 74.01171875 89.71875 C74.41431412 90.7113382 74.81690948 91.70392639 75.23170471 92.72659302 C75.59698776 93.64117279 75.96227081 94.55575256 76.33862305 95.49804688 C76.66074265 96.29819214 76.98286224 97.0983374 77.31474304 97.92272949 C78 100 78 100 78 103 C78.66 103 79.32 103 80 103 C80.11069824 102.14865479 80.22139648 101.29730957 80.33544922 100.42016602 C81.04523042 96.76721789 82.19317909 93.70739569 83.6328125 90.27734375 C83.90144608 89.63156372 84.17007965 88.98578369 84.44685364 88.32043457 C85.02911259 86.92250753 85.61421909 85.52576382 86.20187378 84.13009644 C87.46599182 81.12758101 88.71629807 78.11938005 89.96720886 75.11134338 C90.62752965 73.5235344 91.28852117 71.9360042 91.95014954 70.34873962 C95.67516514 61.40368225 99.30789294 52.42159442 102.9375 43.4375 C103.84136769 41.20081504 104.74539512 38.9641974 105.65057373 36.7280426 C106.23078972 35.2923766 106.80898721 33.85589302 107.3850708 32.41856384 C108.8662983 28.73552096 110.39283057 25.08123924 111.99658203 21.44970703 C112.32203506 20.69939713 112.6474881 19.94908722 112.98280334 19.17604065 C113.59856235 17.76069568 114.22682805 16.35069029 114.87059021 14.94786072 C117.28975753 9.33689096 117 6.74063293 117 0 C130.2 0 143.4 0 157 0 C155.02 2.64 153.04 5.28 151 8 C149.53813265 10.34162176 148.14671874 12.65312172 146.8125 15.0625 C146.24523193 16.08150391 146.24523193 16.08150391 145.66650391 17.12109375 C140.93764406 25.76024608 136.77518103 34.67397989 132.60107422 43.59033203 C131.16665958 46.64507964 129.72109598 49.69412671 128.27052307 52.74121094 C118.89379673 72.44449784 109.63795217 92.20965529 102.375 112.8125 C102.1267749 113.48716309 101.8785498 114.16182617 101.62280273 114.85693359 C99.55088521 121.03982284 100 124.84368158 100 132 C85.81 132 71.62 132 57 132 C57.33 131.01 57.66 130.02 58 129 C58.35896505 123.70196402 57.45891192 119.57761611 55.49609375 114.71484375 C55.22816513 114.0275267 54.96023651 113.34020966 54.68418884 112.63206482 C51.35339639 104.1875106 47.71627569 95.87097227 44.0625 87.5625 C43.31642971 85.85858656 42.57041837 84.1546473 41.82446289 82.45068359 C35.47143121 67.96651672 28.98580224 53.54334093 22.37554932 39.17480469 C20.75703961 35.65643929 19.15568504 32.1310638 17.5703125 28.59765625 C12.82606932 18.11482091 7.20955648 9.0119456 0 0 Z " fill="#331F5E" transform="translate(26,89)"/>
<path d="M0 0 C1.08539063 -0.00773437 2.17078125 -0.01546875 3.2890625 -0.0234375 C15.2214695 0.00538474 24.53622651 1.94586175 33.671875 10.0703125 C45.41673505 22.46766478 45.17072423 39.50487045 44.94140625 55.5234375 C44.51600862 68.27824677 41.96798028 80.41696011 32.4375 89.5 C23.49285062 96.64019734 11.46081893 98.64272847 0.3125 98.5625 C-0.51564209 98.55686035 -1.34378418 98.5512207 -2.19702148 98.54541016 C-13.97856053 98.31356691 -24.1777954 95.57857646 -33.1875 87.65625 C-42.54137392 77.74114364 -43.75329649 63.50466999 -43.6875 50.5625 C-43.68186035 49.40999756 -43.6762207 48.25749512 -43.67041016 47.07006836 C-43.48050437 33.74375889 -41.95624692 20.77445369 -32.7109375 10.37890625 C-23.19567197 1.66744169 -12.46178095 -0.08817298 0 0 Z " fill="#FEFEFE" transform="translate(504.375,105.75)"/>
<path d="M0 0 C8.81364132 6.03208846 12.73777703 14.70264813 15.16601562 24.90014648 C16.01250402 29.91880476 15.85430385 34.99156424 15.86914062 40.07006836 C15.87872594 42.04488277 15.9098602 44.01955493 15.94140625 45.99414062 C15.99590912 59.58579281 14.64955897 73.18439071 4.91796875 83.44921875 C-0.66394092 88.18324341 -7.400877 89.84665788 -14.37109375 91.64453125 C-15.30308594 91.9384375 -15.30308594 91.9384375 -16.25390625 92.23828125 C-29.13048702 94.70906428 -44.41182141 93.00443473 -55.37109375 85.64453125 C-64.80303675 77.26961634 -68.69718918 66.94869069 -69.59423828 54.5637207 C-70.8499149 18.49970985 -70.8499149 18.49970985 -59.37109375 5.64453125 C-45.02378241 -9.31043092 -17.40925624 -9.95224368 0 0 Z " fill="#FEFEFE" transform="translate(357.37109375,111.35546875)"/>
<path d="M0 0 C10.89 0 21.78 0 33 0 C33.01458252 3.78549316 33.02916504 7.57098633 33.04418945 11.47119141 C33.09450493 23.97228113 33.1609444 36.47324141 33.23571491 48.97420692 C33.28065815 56.55424229 33.32007616 64.13423082 33.34643555 71.71435547 C33.36942761 78.3220979 33.40283902 84.92969195 33.44870156 91.53731668 C33.47261767 95.03521122 33.49135693 98.53295897 33.49761391 102.03093338 C33.50479852 105.93826643 33.53524765 109.84523194 33.56762695 113.75244141 C33.56619186 114.90906281 33.56475677 116.0656842 33.5632782 117.25735474 C33.57581635 118.32578613 33.58835449 119.39421753 33.60127258 120.49502563 C33.60588155 121.4186622 33.61049051 122.34229877 33.61523914 123.29392433 C33.95365615 126.69944609 33.95365615 126.69944609 37 132 C24.46 132 11.92 132 -1 132 C0.32 129.03 1.64 126.06 3 123 C3.57184279 120.21338557 3.57184279 120.21338557 3.50120544 117.65039062 C3.51103958 116.69181152 3.52087372 115.73323242 3.53100586 114.74560547 C3.51650391 113.21637451 3.51650391 113.21637451 3.50170898 111.65625 C3.50711197 110.55748535 3.51251495 109.4587207 3.51808167 108.32666016 C3.53052424 104.71749408 3.51410669 101.10913267 3.49609375 97.5 C3.49624884 94.9785152 3.49773949 92.45703016 3.50050354 89.93554688 C3.50188554 84.6600679 3.48980112 79.38479481 3.46655273 74.109375 C3.43994797 68.03068533 3.43819886 61.95237755 3.4499411 55.8736496 C3.46076141 49.99978256 3.45439512 44.1260537 3.44038582 38.25219727 C3.43588253 35.76440835 3.43552467 33.27660825 3.43945122 30.78881836 C3.44237462 27.30689798 3.42580148 23.82559251 3.40405273 20.34375 C3.41080521 18.81451904 3.41080521 18.81451904 3.41769409 17.25439453 C3.40778946 16.29581543 3.39788483 15.33723633 3.38768005 14.34960938 C3.38403521 13.11857483 3.38403521 13.11857483 3.38031673 11.8626709 C2.83882881 7.78685306 1.30021153 3.90063459 0 0 Z " fill="#35215F" transform="translate(200,89)"/>
<path d="M0 0 C10.89 0 21.78 0 33 0 C33.01458252 3.67890381 33.02916504 7.35780762 33.04418945 11.14819336 C33.09456458 23.31398954 33.16101584 35.47964828 33.23571491 47.64531612 C33.28060607 55.02012131 33.32003596 62.39487892 33.34643555 69.76977539 C33.36946994 76.20065747 33.40292824 82.63138817 33.44870156 89.06215006 C33.47256085 92.46456624 33.49133719 95.86683317 33.49761391 99.26933098 C33.50726067 103.0755314 33.53532888 106.88118943 33.56762695 110.68725586 C33.56619186 111.80503922 33.56475677 112.92282257 33.5632782 114.07447815 C33.57581635 115.12179108 33.58835449 116.169104 33.60127258 117.24815369 C33.60588155 118.14690185 33.61049051 119.04565001 33.61523914 119.97163296 C34.03839321 124.08585361 34.03839321 124.08585361 37 132 C24.79 132 12.58 132 0 132 C0.99 129.36 1.98 126.72 3 124 C3.43417028 121.25392971 3.43417028 121.25392971 3.38095093 118.64329529 C3.3894104 117.65795807 3.39786987 116.67262085 3.40658569 115.65742493 C3.400513 114.60314804 3.39444031 113.54887115 3.38818359 112.46264648 C3.39344055 111.33155457 3.39869751 110.20046265 3.40411377 109.03509521 C3.41726748 105.313619 3.40859229 101.59257396 3.3984375 97.87109375 C3.40045941 95.2761273 3.40337183 92.68116141 3.40713501 90.0861969 C3.41155199 84.65514168 3.40543499 79.22424723 3.39111328 73.79321289 C3.37478096 67.52763462 3.38008461 61.26234917 3.3965925 54.99677795 C3.41188074 48.9504535 3.41021986 42.90427153 3.4014473 36.85792732 C3.39944836 34.29312155 3.40189376 31.72830829 3.40888596 29.16351128 C3.41651663 25.57812659 3.40487299 21.99330203 3.38818359 18.40795898 C3.39425629 17.35165787 3.40032898 16.29535675 3.40658569 15.20704651 C3.39812622 14.22452911 3.38966675 13.24201172 3.38095093 12.22972107 C3.37981985 11.38376594 3.37868877 10.5378108 3.37752342 9.66622066 C2.99884119 6.15575513 2.99884119 6.15575513 0 0 Z " fill="#321E5D" transform="translate(755,89)"/>
<path d="M0 0 C3.74498526 1.21856463 6.52385999 3.4004772 9.59765625 5.78125 C10.92025337 6.77949592 12.2445327 7.77551617 13.5703125 8.76953125 C14.59922607 9.54224365 14.59922607 9.54224365 15.64892578 10.33056641 C19.21807493 12.96317082 22.87296048 15.46796348 26.53515625 17.96875 C27.21425049 18.4332959 27.89334473 18.8978418 28.59301758 19.37646484 C35.0793792 24.20806429 35.0793792 24.20806429 42.78515625 24.90625 C46.41220853 23.78429608 49.90145456 22.36184903 53.4140625 20.92578125 C54.95319557 20.31098152 54.95319557 20.31098152 56.52342224 19.6837616 C59.80212669 18.37171682 63.07492826 17.04562278 66.34765625 15.71875 C68.52239938 14.84473937 70.6975261 13.97168256 72.87304688 13.09960938 C77.02483747 11.43446721 81.17565122 9.76693108 85.32568359 8.09741211 C89.72726038 6.32921413 94.13017434 4.56605424 98.546875 2.8359375 C99.48362061 2.46839355 100.42036621 2.10084961 101.38549805 1.72216797 C105.32785901 0.38170909 107.63220303 0.14487524 111.78515625 0.90625 C120.22013383 5.21118274 120.22013383 5.21118274 121.78515625 9.90625 C107.4537605 22.53883208 86.09071526 27.71756597 68.51794624 34.3830719 C65.29735367 35.60544495 62.07810304 36.8313205 58.859375 38.05859375 C57.89888685 38.42434132 57.89888685 38.42434132 56.9189949 38.79747772 C48.22769306 42.11352921 39.64402403 45.62594279 31.1171875 49.34765625 C13.10975632 57.12867814 -3.30099894 63.57512456 -23.15234375 63.65625 C-23.93105835 63.66903992 -24.70977295 63.68182983 -25.51208496 63.69500732 C-37.17610835 63.74411571 -37.17610835 63.74411571 -41.65063477 59.71044922 C-43.44894554 57.18060238 -44.83847483 54.68288313 -46.21484375 51.90625 C-47.21158972 50.43134856 -48.22843886 48.96952513 -49.27734375 47.53125 C-50.5625 45.6953125 -50.5625 45.6953125 -51.21484375 43.90625 C-50.26298649 41.25288623 -49.22053683 39.91194308 -47.21484375 37.90625 C-43.52676185 38.24437506 -41.01941408 39.41812428 -37.96484375 41.4453125 C-37.19140625 41.94289063 -36.41796875 42.44046875 -35.62109375 42.953125 C-34.01333507 44.00756414 -32.40916606 45.06749651 -30.80859375 46.1328125 C-30.03515625 46.6278125 -29.26171875 47.1228125 -28.46484375 47.6328125 C-27.76875 48.09252441 -27.07265625 48.55223633 -26.35546875 49.02587891 C-21.70583079 50.93812737 -17.00295812 48.15084338 -12.6015625 46.40234375 C-11.98714798 46.1596022 -11.37273346 45.91686066 -10.73970032 45.66676331 C-8.79232816 44.8963595 -6.84732978 44.12015549 -4.90234375 43.34375 C-3.5763248 42.81797353 -2.25015439 42.29257887 -0.92382812 41.76757812 C2.31426433 40.4848821 5.5502551 39.19697651 8.78515625 37.90625 C7.712542 34.50629905 6.66297939 31.36446546 4.796875 28.3203125 C4.42224121 27.70333496 4.04760742 27.08635742 3.66162109 26.45068359 C3.0730835 25.50056396 3.0730835 25.50056396 2.47265625 24.53125 C2.07256348 23.8707666 1.6724707 23.2102832 1.26025391 22.52978516 C-0.85527579 19.05017151 -3.0555743 15.65296039 -5.33984375 12.28125 C-7.21484375 8.90625 -7.21484375 8.90625 -7.27734375 6.15625 C-5.65569898 2.72217871 -4.12079317 -0.17442511 0 0 Z " fill="#34215F" transform="translate(845.21484375,322.09375)"/>
<path d="M0 0 C3.74653136 2.55300263 6.32597238 4.89425541 8.1875 9.125 C9.09898923 14.46525457 8.24186175 18.59272127 5.1875 23.125 C-0.10280379 29.33673809 -7.26538604 31.59972993 -14.8125 34.125 C-15.50988281 34.3621875 -16.20726562 34.599375 -16.92578125 34.84375 C-31.96140722 39.54454341 -52.85680252 38.97478516 -67.44140625 33.05859375 C-71.21880562 30.95076316 -74.23595503 28.30201316 -76.19140625 24.34765625 C-77.89327084 18.25733582 -77.60377778 11.68501635 -75.75 5.6875 C-70.52013957 -1.22941218 -65.18637119 -3.9253047 -56.8125 -5.875 C-56.2354834 -6.04628418 -55.6584668 -6.21756836 -55.06396484 -6.39404297 C-38.16820975 -10.0033075 -15.18698377 -8.30367458 0 0 Z " fill="#FCFCFD" transform="translate(921.8125,166.875)"/>
<path d="M0 0 C5.96890898 2.61353758 9.82797539 7.1538609 13.04296875 12.70703125 C14.63582759 19.39703836 14.04539452 25.07064321 11.0078125 31.25390625 C8.06347628 35.82063181 3.71024483 39.31512082 -1.33203125 41.33203125 C-7.77538079 42.02303113 -13.88126827 42.18744897 -19.33203125 38.33203125 C-24.16938664 34.18572663 -27.79417037 29.9028299 -28.75390625 23.53125 C-29.08247968 16.34826976 -28.01322408 10.90331003 -23.33203125 5.33203125 C-16.65342091 -1.25117037 -8.96278948 -2.56723116 0 0 Z " fill="#3A2663" transform="translate(500.33203125,349.66796875)"/>
<path d="M0 0 C3.50625 -0.061875 7.0125 -0.12375 10.625 -0.1875 C11.71893066 -0.21481201 12.81286133 -0.24212402 13.93994141 -0.27026367 C20.73195836 -0.32820328 25.10649466 0.48721904 30.375 5.0625 C32.75477223 9.36439595 32.89963018 13.1942832 32 18 C30.00375395 21.85835698 27.07090176 24.50091793 23 26 C20.37573495 26.13958857 17.86707253 26.18931369 15.25 26.125 C14.20392578 26.11146484 14.20392578 26.11146484 13.13671875 26.09765625 C11.42433042 26.07419888 9.71211996 26.03833104 8 26 C8.01160156 27.07121094 8.02320312 28.14242188 8.03515625 29.24609375 C8.04453299 30.64322743 8.05363331 32.04036299 8.0625 33.4375 C8.07087891 34.14455078 8.07925781 34.85160156 8.08789062 35.58007812 C8.09653588 37.38693559 8.05220011 39.19387603 8 41 C7.505 41.495 7.505 41.495 7 42 C4.69 42 2.38 42 0 42 C0 28.14 0 14.28 0 0 Z " fill="#3D2A66" transform="translate(70,349)"/>
<path d="M0 0 C3.50625 -0.061875 7.0125 -0.12375 10.625 -0.1875 C11.71893066 -0.21481201 12.81286133 -0.24212402 13.93994141 -0.27026367 C20.73195836 -0.32820328 25.10649466 0.48721904 30.375 5.0625 C32.75477223 9.36439595 32.89963018 13.1942832 32 18 C30.00573157 21.85453464 27.07440316 24.51963352 23 26 C20.20329698 26.14039674 17.53857997 26.18855578 14.75 26.125 C12.1925 26.08375 9.635 26.0425 7 26 C7 31.28 7 36.56 7 42 C4.69 42 2.38 42 0 42 C0 28.14 0 14.28 0 0 Z " fill="#382462" transform="translate(253,349)"/>
<path d="M0 0 C3.64622337 2.11138148 5.95369889 5.30974152 7.828125 9.05859375 C8.64404385 14.61510439 8.46530743 18.90403835 5.140625 23.55859375 C1.90000198 27.64496076 -1.35324669 28.83502715 -6.4765625 29.46484375 C-17.30364131 29.74914341 -17.30364131 29.74914341 -21.421875 26.30859375 C-25.16217866 22.49117043 -26.47225652 19.01135305 -26.546875 13.68359375 C-26.42641089 8.65756348 -25.79289788 5.7701422 -22.171875 2.05859375 C-15.03660053 -2.97714199 -7.97412872 -3.28069469 0 0 Z " fill="#35215F" transform="translate(780.171875,31.94140625)"/>
<path d="M0 0 C3.66798996 2.76921096 5.66089145 5.32266443 6.58203125 9.87890625 C6.86389051 15.11624457 6.64991996 18.97917923 3.25 23.125 C-1.06448601 27.50485701 -4.77055563 28.30936081 -10.875 28.375 C-16.41265364 28.27734428 -19.97332142 28.13264381 -24 24 C-27.43608661 19.38841008 -28.6595489 15.90621134 -28.39453125 10.14453125 C-27.77299546 6.76608425 -26.16933371 4.60320045 -24 2 C-23.54625 1.4225 -23.0925 0.845 -22.625 0.25 C-15.86136127 -4.95279902 -6.97314603 -4.00310235 0 0 Z " fill="#35215F" transform="translate(226,33)"/>
<path d="M0 0 C7 0 7 0 8.87695312 1.49365234 C9.34037109 2.18410645 9.80378906 2.87456055 10.28125 3.5859375 C10.81363281 4.35292969 11.34601563 5.11992187 11.89453125 5.91015625 C12.42433594 6.72355469 12.95414063 7.53695313 13.5 8.375 C14.02980469 9.14972656 14.55960938 9.92445313 15.10546875 10.72265625 C16.75368697 13.13711636 18.37660846 15.56877791 20 18 C22.31 21.3 24.62 24.6 27 28 C27.33 18.76 27.66 9.52 28 0 C30.31 0 32.62 0 35 0 C35 13.86 35 27.72 35 42 C28 42 28 42 26.24658203 40.64575195 C25.83778809 40.01628662 25.42899414 39.38682129 25.0078125 38.73828125 C24.5344043 38.03695068 24.06099609 37.33562012 23.57324219 36.61303711 C23.09532227 35.85385986 22.61740234 35.09468262 22.125 34.3125 C21.36171387 33.16503296 21.36171387 33.16503296 20.58300781 31.99438477 C19.54325616 30.43036259 18.51262303 28.86024003 17.49121094 27.28417969 C15.72847921 24.58409487 13.89878281 21.93651875 12.04931641 19.29541016 C10.35439895 16.87182469 8.67904195 14.43461082 7 12 C6.67 21.9 6.34 31.8 6 42 C4.02 42 2.04 42 0 42 C0 28.14 0 14.28 0 0 Z " fill="#3B2864" transform="translate(192,349)"/>
<path d="M0 0 C2.97 0 5.94 0 9 0 C11.14049056 5.51593791 13.276625 11.03353481 15.40869141 16.55273438 C16.13502612 18.4311302 16.86256149 20.30906221 17.59130859 22.18652344 C18.63693129 24.88095799 19.67826339 27.57701614 20.71875 30.2734375 C21.04685669 31.11619232 21.37496338 31.95894714 21.7130127 32.82723999 C22.01332397 33.60789825 22.31363525 34.38855652 22.62304688 35.19287109 C22.88952026 35.88126068 23.15599365 36.56965027 23.43054199 37.27890015 C24 39 24 39 24 41 C21.69 41 19.38 41 17 41 C16.32880451 39.5437455 15.66318193 38.08492133 15 36.625 C14.62875 35.81289063 14.2575 35.00078125 13.875 34.1640625 C13 32 13 32 13 30 C7.06 30 1.12 30 -5 30 C-5.33 31.98 -5.66 33.96 -6 36 C-6.93942486 38.02915769 -7.92598385 40.03875312 -9 42 C-11.31 42 -13.62 42 -16 42 C-13.20867406 33.14232672 -9.73743569 24.56391273 -6.3125 15.9375 C-5.69964922 14.38875914 -5.08701716 12.83993171 -4.47460938 11.29101562 C-2.98559395 7.52634046 -1.49361915 3.7628509 0 0 Z " fill="#3B2864" transform="translate(300,349)"/>
<path d="M0 0 C2.97 0 5.94 0 9 0 C11.14498459 5.3350787 13.28096754 10.67363891 15.40869141 16.015625 C16.13376566 17.83236587 16.86128927 19.64813118 17.59130859 21.46289062 C18.64025134 24.07168973 19.68033311 26.68387134 20.71875 29.296875 C21.04685669 30.10743347 21.37496338 30.91799194 21.7130127 31.75311279 C22.01332397 32.51359924 22.31363525 33.27408569 22.62304688 34.05761719 C22.88952026 34.72380066 23.15599365 35.38998413 23.43054199 36.07635498 C24 38 24 38 24 42 C21.69 42 19.38 42 17 42 C16.3291288 40.3767313 15.66342971 38.75132422 15 37.125 C14.62875 36.22007812 14.2575 35.31515625 13.875 34.3828125 C13 32 13 32 13 30 C4.585 30.495 4.585 30.495 -4 31 C-5.98 35.95 -5.98 35.95 -8 41 C-10.31 41 -12.62 41 -15 41 C-14.27663412 36.27155748 -12.58781522 32.05872904 -10.83984375 27.63671875 C-10.53051407 26.84473587 -10.22118439 26.05275299 -9.90248108 25.23677063 C-8.91800963 22.71881738 -7.92784292 20.20314894 -6.9375 17.6875 C-6.26720056 15.97605929 -5.59727447 14.2644723 -4.92773438 12.55273438 C-3.28947649 8.36678271 -1.64610873 4.18287024 0 0 Z " fill="#3B2864" transform="translate(161,349)"/>
<path d="M0 0 C3.9475237 1.79432896 5.7308259 3.1697491 7.4609375 7.2265625 C6.4709375 8.2165625 5.4809375 9.2065625 4.4609375 10.2265625 C3.9246875 9.9378125 3.3884375 9.6490625 2.8359375 9.3515625 C-2.36367105 6.88859003 -6.74680509 5.69999364 -12.5390625 6.2265625 C-17.09385668 8.13322053 -19.34519662 10.83883075 -21.5390625 15.2265625 C-22.3787284 19.8828916 -22.0379444 23.88050683 -19.8515625 28.1015625 C-17.4819321 31.30376574 -16.22902483 32.80089524 -12.5390625 34.2265625 C-8.59516582 34.79570206 -5.4621712 34.57529245 -1.7265625 33.1640625 C1.28105223 30.50017517 2.11100415 27.99216605 3.4609375 24.2265625 C-0.4990625 24.2265625 -4.4590625 24.2265625 -8.5390625 24.2265625 C-8.5390625 22.2465625 -8.5390625 20.2665625 -8.5390625 18.2265625 C-1.9390625 18.2265625 4.6609375 18.2265625 11.4609375 18.2265625 C11.4609375 25.88537315 11.22568409 30.2504264 6 35.76953125 C0.27535023 40.72411392 -4.0475274 41.74155705 -11.49609375 41.60546875 C-17.53230466 40.85384814 -21.4913374 37.63255805 -25.4140625 33.1640625 C-29.93240311 26.91812106 -30.44439389 21.88335457 -29.5390625 14.2265625 C-27.58858001 7.98691219 -23.77764255 3.60504787 -18.19921875 0.26171875 C-12.31880207 -2.02654912 -5.99515638 -1.82621687 0 0 Z " fill="#372461" transform="translate(453.5390625,349.7734375)"/>
<path d="M0 0 C2.31 0 4.62 0 7 0 C7.33 5.94 7.66 11.88 8 18 C11.32776798 14.67223202 14.50572133 11.38016882 17.625 7.875 C19.07712855 6.24445292 20.5348212 4.61883051 22 3 C22.49886719 2.40832031 22.99773437 1.81664062 23.51171875 1.20703125 C26.29836324 -1.05300326 29.56466072 -0.16895111 33 0 C33 0.66 33 1.32 33 2 C31.56640625 3.375 31.56640625 3.375 29.5625 5 C26.1650008 7.90431383 23.00385639 10.93370176 19.9375 14.1875 C19.16277344 15.00605469 18.38804687 15.82460938 17.58984375 16.66796875 C15.78147134 18.79299465 15.78147134 18.79299465 16.16210938 20.89331055 C17.23944056 23.60201998 18.71527729 25.02245759 20.81640625 27.0390625 C21.58017578 27.78414063 22.34394531 28.52921875 23.13085938 29.296875 C24.33452148 30.44929688 24.33452148 30.44929688 25.5625 31.625 C27.15151541 33.15431619 28.73639034 34.68795022 30.31640625 36.2265625 C31.02224854 36.90283691 31.72809082 37.57911133 32.45532227 38.27587891 C34 40 34 40 34 42 C30.07024328 42.56139382 26.50373239 43.00556338 23.08984375 40.72265625 C21.27062438 38.89514886 19.6299759 36.99803497 18 35 C16.75222766 33.58137086 15.50225122 32.16467711 14.25 30.75 C13.69828125 30.10546875 13.1465625 29.4609375 12.578125 28.796875 C11.1195609 27.1361337 9.56292529 25.56292529 8 24 C7.67 29.94 7.34 35.88 7 42 C4.69 42 2.38 42 0 42 C0 28.14 0 14.28 0 0 Z " fill="#3C2964" transform="translate(372,349)"/>
<path d="M0 0 C4.36339712 2.22286269 7.23431511 4.38960056 9 9 C9.53109912 13.89053775 9.67171974 18.33837749 7.8125 22.9375 C4.31892565 26.91294668 1.0875704 29.79927208 -4.25 30.3125 C-8.80329216 29.93305899 -10.59316864 29.02829454 -14 26 C-17.35135455 21.21679738 -18.76324769 16.88791077 -18 11 C-14.86897053 2.59565773 -8.83725638 -1.18488354 0 0 Z " fill="#FBFAFB" transform="translate(497,355)"/>
<path d="M0 0 C3.9475237 1.79432896 5.7308259 3.1697491 7.4609375 7.2265625 C5.4609375 8.9765625 5.4609375 8.9765625 2.4609375 10.2265625 C0.32962631 9.43735313 -1.51547566 8.356684 -3.4921875 7.23828125 C-6.67729891 5.66396092 -9.06398466 5.71173615 -12.5390625 6.2265625 C-16.87740168 8.47916169 -19.74193612 10.6339062 -21.5390625 15.2265625 C-22.22332307 20.26981634 -22.1130487 24.05733134 -19.8515625 28.6640625 C-16.43898729 32.44556476 -14.22011576 34.04317487 -9.1015625 34.6015625 C-4.02726267 34.06742568 -0.72381905 32.0164002 3.4609375 29.2265625 C4.7809375 30.5465625 6.1009375 31.8665625 7.4609375 33.2265625 C6.07728251 37.37752746 3.96606568 38.22167827 0.1953125 40.203125 C-6.09893236 42.55897093 -12.91934094 42.3197181 -19.0390625 39.5390625 C-23.89644166 36.66285041 -26.9236698 32.63822838 -28.9921875 27.375 C-30.56429964 21.19884518 -30.7480429 14.5239372 -27.6015625 8.8515625 C-20.62675235 -0.43523207 -11.22140832 -3.41821361 0 0 Z " fill="#392662" transform="translate(356.5390625,349.7734375)"/>
<path d="M0 0 C2.31 0 4.62 0 7 0 C7 11.55 7 23.1 7 35 C14.26 35 21.52 35 29 35 C29 37.31 29 39.62 29 42 C19.43 42 9.86 42 0 42 C0 28.14 0 14.28 0 0 Z " fill="#3F2C67" transform="translate(111,349)"/>
<path d="M0 0 C13.85024631 -0.41970443 13.85024631 -0.41970443 18 3 C18.62890625 4.9375 18.62890625 4.9375 18.5625 7 C18.56443359 8.0209375 18.56443359 8.0209375 18.56640625 9.0625 C18 11 18 11 16.41796875 12.73828125 C11.47527324 15.31742608 5.41031807 14.15028661 0 14 C0 9.38 0 4.76 0 0 Z " fill="#F5F4F7" transform="translate(77,355)"/>
<path d="M0 0 C13.34184869 -0.49414254 13.34184869 -0.49414254 16.4296875 1.82421875 C18.52529706 4.72783697 18.4476678 6.49326886 18 10 C16 13 16 13 13 14 C8.66328697 14.13501597 4.33988266 14.04296914 0 14 C0 9.38 0 4.76 0 0 Z " fill="#F8F7F9" transform="translate(260,355)"/>
<path d="M0 0 C2.36775721 2.36775721 2.99896496 4.29711338 4.125 7.4375 C4.47820312 8.40558594 4.83140625 9.37367188 5.1953125 10.37109375 C6 13 6 13 6 16 C2.04 16 -1.92 16 -6 16 C-4.3967597 10.35048657 -2.85403778 5.16444932 0 0 Z " fill="#F3F2F6" transform="translate(304,357)"/>
<path d="M0 0 C2.36775721 2.36775721 2.99896496 4.29711338 4.125 7.4375 C4.47820312 8.40558594 4.83140625 9.37367188 5.1953125 10.37109375 C6 13 6 13 6 16 C2.04 16 -1.92 16 -6 16 C-5.19110952 13.51960151 -4.37808099 11.04069788 -3.5625 8.5625 C-3.33240234 7.85544922 -3.10230469 7.14839844 -2.86523438 6.41992188 C-1.11328125 1.11328125 -1.11328125 1.11328125 0 0 Z " fill="#F6F6F8" transform="translate(165,357)"/>
<path d="M0 0 C2.5625 0.1875 2.5625 0.1875 4.5625 2.1875 C4.1875 4.8125 4.1875 4.8125 3.5625 7.1875 C1.1875 7.8125 1.1875 7.8125 -1.4375 8.1875 C-3.4375 6.1875 -3.4375 6.1875 -3.625 3.625 C-3.37291261 0.34786389 -3.27713611 0.25208739 0 0 Z " fill="#3A2763" transform="translate(414.4375,382.8125)"/>
<path d="M0 0 C2.5625 0.1875 2.5625 0.1875 4.5625 2.1875 C4.1875 4.8125 4.1875 4.8125 3.5625 7.1875 C1.1875 7.8125 1.1875 7.8125 -1.4375 8.1875 C-3.4375 6.1875 -3.4375 6.1875 -3.625 3.625 C-3.37291261 0.34786389 -3.27713611 0.25208739 0 0 Z " fill="#392662" transform="translate(239.4375,382.8125)"/>
</svg>
